<svg xmlns="http://www.w3.org/2000/svg" width="26" height="26" viewBox="0 0 26 26" fill="none">
  <g clip-path="url(#clip0_1649_345)">
    <path d="M21.5815 4.66667H4.91488C3.76904 4.66667 2.83154 5.60417 2.83154 6.75V19.25C2.83154 20.3958 3.76904 21.3333 4.91488 21.3333H21.5815C22.7274 21.3333 23.6649 20.3958 23.6649 19.25V6.75C23.6649 5.60417 22.7274 4.66667 21.5815 4.66667ZM21.5815 19.25H4.91488V6.75H21.5815V19.25ZM4.91488 0.5H21.5815V2.58333H4.91488V0.5ZM4.91488 23.4167H21.5815V25.5H4.91488V23.4167ZM13.2482 13C14.6857 13 15.8524 11.8333 15.8524 10.3958C15.8524 8.95833 14.6857 7.79167 13.2482 7.79167C11.8107 7.79167 10.644 8.95833 10.644 10.3958C10.644 11.8333 11.8107 13 13.2482 13ZM13.2482 9.35417C13.8211 9.35417 14.2899 9.82292 14.2899 10.3958C14.2899 10.9688 13.8211 11.4375 13.2482 11.4375C12.6753 11.4375 12.2065 10.9688 12.2065 10.3958C12.2065 9.82292 12.6753 9.35417 13.2482 9.35417ZM18.4565 17.1562C18.4565 14.9792 15.0086 14.0417 13.2482 14.0417C11.4878 14.0417 8.03988 14.9792 8.03988 17.1562V18.2083H18.4565V17.1562ZM9.92529 16.6458C10.5607 16.1042 12.0399 15.6042 13.2482 15.6042C14.467 15.6042 15.9461 16.1042 16.5815 16.6458H9.92529Z" fill="#A0AEC0"/>
  </g>
  <defs>
    <clipPath id="clip0_1649_345">
      <rect width="25" height="25" fill="white" transform="translate(0.748047 0.5)"/>
    </clipPath>
  </defs>
</svg>