<svg xmlns="http://www.w3.org/2000/svg" width="26" height="26" viewBox="0 0 26 26" fill="none">
  <path d="M21.5771 4.66659V17.1666H9.07715V4.66659H21.5771ZM21.5771 2.58325H9.07715C7.93131 2.58325 6.99381 3.52075 6.99381 4.66659V17.1666C6.99381 18.3124 7.93131 19.2499 9.07715 19.2499H21.5771C22.723 19.2499 23.6605 18.3124 23.6605 17.1666V4.66659C23.6605 3.52075 22.723 2.58325 21.5771 2.58325ZM12.723 12.6562L14.4834 15.0103L17.0667 11.7812L20.5355 16.1249H10.1188L12.723 12.6562ZM2.82715 6.74992V21.3333C2.82715 22.4791 3.76465 23.4166 4.91048 23.4166H19.4938V21.3333H4.91048V6.74992H2.82715Z" fill="#A0AEC0"/>
</svg>