<svg width="198" height="14" viewBox="0 0 198 14" fill="none" xmlns="http://www.w3.org/2000/svg">
<path d="M11.584 8.13835L8.512 1.19435L5.472 8.13835L3.264 1.75434H0.064L4.912 13.6103L8.512 6.85835L12.128 13.6103L16.976 1.75434H13.76L11.584 8.13835ZM20.4536 13.1143C21.3923 13.1143 22.187 12.933 22.8376 12.5703C23.499 12.2077 24.0216 11.6637 24.4056 10.9383L22.2456 10.4103C22.0643 10.7303 21.819 10.9703 21.5096 11.1303C21.211 11.2903 20.8483 11.3703 20.4216 11.3703C20.0483 11.3703 19.7336 11.2903 19.4776 11.1303C19.2216 10.9597 19.0296 10.7143 18.9016 10.3943C18.7736 10.0743 18.7096 9.69035 18.7096 9.24235C18.7203 8.75168 18.7843 8.34635 18.9016 8.02635C19.0296 7.69568 19.2163 7.45035 19.4616 7.29035C19.707 7.13035 20.011 7.05035 20.3736 7.05035C20.6616 7.05035 20.9123 7.11435 21.1256 7.24235C21.339 7.37035 21.5043 7.55168 21.6216 7.78635C21.739 8.02101 21.7976 8.29835 21.7976 8.61835C21.7976 8.69301 21.7763 8.78901 21.7336 8.90635C21.7016 9.01301 21.659 9.10368 21.6056 9.17835L22.1816 8.44235H17.6376V9.78635H24.3576C24.379 9.71168 24.3896 9.62101 24.3896 9.51435C24.3896 9.39701 24.3896 9.27968 24.3896 9.16235C24.3896 8.37301 24.235 7.70101 23.9256 7.14635C23.6163 6.59168 23.1683 6.17035 22.5816 5.88235C21.995 5.58368 21.275 5.43435 20.4216 5.43435C19.5683 5.43435 18.827 5.58901 18.1976 5.89835C17.579 6.20768 17.1043 6.65035 16.7736 7.22635C16.443 7.80235 16.2776 8.48501 16.2776 9.27435C16.2776 10.053 16.4483 10.7303 16.7896 11.3063C17.131 11.8823 17.611 12.3303 18.2296 12.6503C18.859 12.9597 19.6003 13.1143 20.4536 13.1143ZM41.3184 8.13835L38.2464 1.19435L35.2064 8.13835L32.9984 1.75434H29.7984L34.6464 13.6103L38.2464 6.85835L41.8624 13.6103L46.7104 1.75434H43.4944L41.3184 8.13835ZM46.012 9.27435C46.012 10.0423 46.1933 10.7143 46.556 11.2903C46.9187 11.8663 47.42 12.3143 48.06 12.6343C48.7 12.9543 49.42 13.1143 50.22 13.1143C51.02 13.1143 51.7347 12.9543 52.364 12.6343C53.004 12.3143 53.5053 11.8663 53.868 11.2903C54.2413 10.7143 54.428 10.0423 54.428 9.27435C54.428 8.49568 54.2413 7.81835 53.868 7.24235C53.5053 6.66635 53.004 6.21835 52.364 5.89835C51.7347 5.57835 51.02 5.41835 50.22 5.41835C49.42 5.41835 48.7 5.57835 48.06 5.89835C47.42 6.21835 46.9187 6.66635 46.556 7.24235C46.1933 7.81835 46.012 8.49568 46.012 9.27435ZM48.492 9.27435C48.492 8.89035 48.572 8.55968 48.732 8.28235C48.892 8.00501 49.1 7.79168 49.356 7.64235C49.612 7.49301 49.9 7.41835 50.22 7.41835C50.5293 7.41835 50.812 7.49301 51.068 7.64235C51.3347 7.79168 51.5427 8.00501 51.692 8.28235C51.852 8.55968 51.932 8.89035 51.932 9.27435C51.932 9.65835 51.852 9.98901 51.692 10.2663C51.5427 10.533 51.3347 10.741 51.068 10.8903C50.812 11.0397 50.5293 11.1143 50.22 11.1143C49.9 11.1143 49.612 11.0397 49.356 10.8903C49.1 10.741 48.892 10.533 48.732 10.2663C48.572 9.98901 48.492 9.65835 48.492 9.27435ZM58.2655 5.59435H55.8815V12.9543H58.2655V5.59435ZM60.3935 8.09035L61.4335 6.02635C61.3055 5.83435 61.1188 5.68501 60.8735 5.57835C60.6282 5.47168 60.3722 5.41835 60.1055 5.41835C59.7002 5.41835 59.3108 5.55168 58.9375 5.81835C58.5642 6.08501 58.2602 6.44768 58.0255 6.90635C57.8015 7.36501 57.6895 7.88768 57.6895 8.47435L58.2655 9.32235C58.2655 8.97035 58.3135 8.67168 58.4095 8.42635C58.5055 8.18101 58.6442 7.99435 58.8255 7.86635C59.0068 7.73835 59.2148 7.67435 59.4495 7.67435C59.6628 7.67435 59.8388 7.71168 59.9775 7.78635C60.1268 7.86101 60.2655 7.96235 60.3935 8.09035ZM62.4436 0.474345V12.9543H64.7636V0.474345H62.4436ZM67.4356 5.59435L64.2836 8.63435L67.8036 12.9543H70.6516L67.1796 8.63435L70.3316 5.59435H67.4356ZM78.9549 7.35435C78.9549 6.69301 79.0829 6.11168 79.3389 5.61035C79.6055 5.09835 79.9735 4.69835 80.4429 4.41035C80.9229 4.12234 81.4829 3.97834 82.1229 3.97834C82.7735 3.97834 83.3335 4.12234 83.8029 4.41035C84.2722 4.69835 84.6349 5.09835 84.8909 5.61035C85.1469 6.11168 85.2749 6.69301 85.2749 7.35435C85.2749 8.01568 85.1415 8.60235 84.8749 9.11435C84.6189 9.61568 84.2509 10.0103 83.7709 10.2983C83.3015 10.5863 82.7522 10.7303 82.1229 10.7303C81.4829 10.7303 80.9229 10.5863 80.4429 10.2983C79.9735 10.0103 79.6055 9.61568 79.3389 9.11435C79.0829 8.60235 78.9549 8.01568 78.9549 7.35435ZM76.0909 7.35435C76.0909 8.21835 76.2349 9.01301 76.5229 9.73835C76.8215 10.4637 77.2375 11.093 77.7709 11.6263C78.3149 12.1597 78.9549 12.5757 79.6909 12.8743C80.4269 13.1623 81.2375 13.3063 82.1229 13.3063C82.9975 13.3063 83.8029 13.1623 84.5389 12.8743C85.2749 12.5757 85.9095 12.1597 86.4429 11.6263C86.9869 11.093 87.4029 10.4637 87.6909 9.73835C87.9895 9.01301 88.1389 8.21835 88.1389 7.35435C88.1389 6.49035 87.9895 5.70101 87.6909 4.98635C87.3922 4.27168 86.9709 3.65301 86.4269 3.13035C85.8829 2.60768 85.2429 2.20768 84.5069 1.93035C83.7815 1.64235 82.9869 1.49835 82.1229 1.49835C81.2695 1.49835 80.4749 1.64235 79.7389 1.93035C79.0029 2.20768 78.3629 2.60768 77.8189 3.13035C77.2749 3.65301 76.8482 4.27168 76.5389 4.98635C76.2402 5.70101 76.0909 6.49035 76.0909 7.35435ZM94.4155 8.47435V12.9543H96.9275V8.21835C96.9275 7.33301 96.7195 6.64501 96.3035 6.15435C95.8875 5.66368 95.2208 5.41835 94.3035 5.41835C93.7595 5.41835 93.3008 5.53035 92.9275 5.75435C92.5648 5.97835 92.2768 6.29301 92.0635 6.69835V5.59435H89.6315V12.9543H92.0635V8.47435C92.0635 8.18635 92.1168 7.94101 92.2235 7.73835C92.3302 7.53568 92.4795 7.38101 92.6715 7.27435C92.8635 7.16768 93.0875 7.11435 93.3435 7.11435C93.7275 7.11435 93.9995 7.23168 94.1595 7.46635C94.3302 7.70101 94.4155 8.03701 94.4155 8.47435ZM110.16 1.75434L107.968 5.96235L105.776 1.75434H102.671L106.592 8.41035V12.9543H109.344V8.39435L113.264 1.75434H110.16ZM112.168 9.27435C112.168 10.0423 112.35 10.7143 112.712 11.2903C113.075 11.8663 113.576 12.3143 114.216 12.6343C114.856 12.9543 115.576 13.1143 116.376 13.1143C117.176 13.1143 117.891 12.9543 118.52 12.6343C119.16 12.3143 119.662 11.8663 120.024 11.2903C120.398 10.7143 120.584 10.0423 120.584 9.27435C120.584 8.49568 120.398 7.81835 120.024 7.24235C119.662 6.66635 119.16 6.21835 118.52 5.89835C117.891 5.57835 117.176 5.41835 116.376 5.41835C115.576 5.41835 114.856 5.57835 114.216 5.89835C113.576 6.21835 113.075 6.66635 112.712 7.24235C112.35 7.81835 112.168 8.49568 112.168 9.27435ZM114.648 9.27435C114.648 8.89035 114.728 8.55968 114.888 8.28235C115.048 8.00501 115.256 7.79168 115.512 7.64235C115.768 7.49301 116.056 7.41835 116.376 7.41835C116.686 7.41835 116.968 7.49301 117.224 7.64235C117.491 7.79168 117.699 8.00501 117.848 8.28235C118.008 8.55968 118.088 8.89035 118.088 9.27435C118.088 9.65835 118.008 9.98901 117.848 10.2663C117.699 10.533 117.491 10.741 117.224 10.8903C116.968 11.0397 116.686 11.1143 116.376 11.1143C116.056 11.1143 115.768 11.0397 115.512 10.8903C115.256 10.741 115.048 10.533 114.888 10.2663C114.728 9.98901 114.648 9.65835 114.648 9.27435ZM124.566 10.0743V5.59435H122.038V10.3303C122.038 11.205 122.246 11.893 122.662 12.3943C123.088 12.885 123.76 13.1303 124.678 13.1303C125.222 13.1303 125.675 13.0183 126.038 12.7943C126.4 12.5597 126.694 12.245 126.918 11.8503V12.9543H129.334V5.59435H126.918V10.0743C126.918 10.3623 126.864 10.6077 126.758 10.8103C126.651 11.013 126.502 11.1677 126.31 11.2743C126.128 11.381 125.904 11.4343 125.638 11.4343C125.243 11.4343 124.966 11.317 124.806 11.0823C124.646 10.837 124.566 10.501 124.566 10.0743ZM133.625 5.59435H131.241V12.9543H133.625V5.59435ZM135.753 8.09035L136.793 6.02635C136.665 5.83435 136.478 5.68501 136.233 5.57835C135.988 5.47168 135.732 5.41835 135.465 5.41835C135.06 5.41835 134.67 5.55168 134.297 5.81835C133.924 6.08501 133.62 6.44768 133.385 6.90635C133.161 7.36501 133.049 7.88768 133.049 8.47435L133.625 9.32235C133.625 8.97035 133.673 8.67168 133.769 8.42635C133.865 8.18101 134.004 7.99435 134.185 7.86635C134.366 7.73835 134.574 7.67435 134.809 7.67435C135.022 7.67435 135.198 7.71168 135.337 7.78635C135.486 7.86101 135.625 7.96235 135.753 8.09035ZM142.856 1.75434V12.9543H145.64V1.75434H142.856ZM146.856 12.9543C148.083 12.9543 149.144 12.725 150.04 12.2663C150.936 11.8077 151.629 11.1623 152.12 10.3303C152.611 9.48768 152.856 8.49568 152.856 7.35435C152.856 6.20235 152.611 5.21035 152.12 4.37835C151.629 3.54635 150.936 2.90101 150.04 2.44235C149.144 1.98368 148.083 1.75434 146.856 1.75434H144.648V4.15435H146.76C147.187 4.15435 147.597 4.20768 147.992 4.31435C148.397 4.42101 148.749 4.59701 149.048 4.84235C149.357 5.08768 149.603 5.41835 149.784 5.83435C149.965 6.23968 150.056 6.74635 150.056 7.35435C150.056 7.96235 149.965 8.47435 149.784 8.89035C149.603 9.29568 149.357 9.62101 149.048 9.86635C148.749 10.1117 148.397 10.2877 147.992 10.3943C147.597 10.501 147.187 10.5543 146.76 10.5543H144.648V12.9543H146.856ZM156.734 5.59435H154.35V12.9543H156.734V5.59435ZM158.862 8.09035L159.902 6.02635C159.774 5.83435 159.588 5.68501 159.342 5.57835C159.097 5.47168 158.841 5.41835 158.574 5.41835C158.169 5.41835 157.78 5.55168 157.406 5.81835C157.033 6.08501 156.729 6.44768 156.494 6.90635C156.27 7.36501 156.158 7.88768 156.158 8.47435L156.734 9.32235C156.734 8.97035 156.782 8.67168 156.878 8.42635C156.974 8.18101 157.113 7.99435 157.294 7.86635C157.476 7.73835 157.684 7.67435 157.918 7.67435C158.132 7.67435 158.308 7.71168 158.446 7.78635C158.596 7.86101 158.734 7.96235 158.862 8.09035ZM164.438 13.1143C165.377 13.1143 166.171 12.933 166.822 12.5703C167.483 12.2077 168.006 11.6637 168.39 10.9383L166.23 10.4103C166.049 10.7303 165.803 10.9703 165.494 11.1303C165.195 11.2903 164.833 11.3703 164.406 11.3703C164.033 11.3703 163.718 11.2903 163.462 11.1303C163.206 10.9597 163.014 10.7143 162.886 10.3943C162.758 10.0743 162.694 9.69035 162.694 9.24235C162.705 8.75168 162.769 8.34635 162.886 8.02635C163.014 7.69568 163.201 7.45035 163.446 7.29035C163.691 7.13035 163.995 7.05035 164.358 7.05035C164.646 7.05035 164.897 7.11435 165.11 7.24235C165.323 7.37035 165.489 7.55168 165.606 7.78635C165.723 8.02101 165.782 8.29835 165.782 8.61835C165.782 8.69301 165.761 8.78901 165.718 8.90635C165.686 9.01301 165.643 9.10368 165.59 9.17835L166.166 8.44235H161.622V9.78635H168.342C168.363 9.71168 168.374 9.62101 168.374 9.51435C168.374 9.39701 168.374 9.27968 168.374 9.16235C168.374 8.37301 168.219 7.70101 167.91 7.14635C167.601 6.59168 167.153 6.17035 166.566 5.88235C165.979 5.58368 165.259 5.43435 164.406 5.43435C163.553 5.43435 162.811 5.58901 162.182 5.89835C161.563 6.20768 161.089 6.65035 160.758 7.22635C160.427 7.80235 160.262 8.48501 160.262 9.27435C160.262 10.053 160.433 10.7303 160.774 11.3063C161.115 11.8823 161.595 12.3303 162.214 12.6503C162.843 12.9597 163.585 13.1143 164.438 13.1143ZM171.738 10.6503C171.738 10.469 171.781 10.3197 171.866 10.2023C171.951 10.0743 172.079 9.97835 172.25 9.91435C172.421 9.85035 172.65 9.81835 172.938 9.81835C173.311 9.81835 173.663 9.87168 173.994 9.97835C174.335 10.0743 174.634 10.2183 174.89 10.4103V9.33835C174.762 9.19968 174.57 9.06635 174.314 8.93835C174.058 8.81035 173.749 8.70368 173.386 8.61835C173.034 8.53301 172.634 8.49035 172.186 8.49035C171.269 8.49035 170.559 8.69835 170.058 9.11435C169.557 9.51968 169.306 10.0743 169.306 10.7783C169.306 11.2797 169.423 11.7063 169.658 12.0583C169.903 12.4103 170.223 12.677 170.618 12.8583C171.023 13.029 171.461 13.1143 171.93 13.1143C172.399 13.1143 172.837 13.0343 173.242 12.8743C173.647 12.7037 173.978 12.4583 174.234 12.1383C174.49 11.8077 174.618 11.4077 174.618 10.9383L174.362 9.97835C174.362 10.3197 174.287 10.6077 174.138 10.8423C173.989 11.077 173.797 11.253 173.562 11.3703C173.327 11.4877 173.071 11.5463 172.794 11.5463C172.602 11.5463 172.426 11.5143 172.266 11.4503C172.106 11.3757 171.978 11.2743 171.882 11.1463C171.786 11.0077 171.738 10.8423 171.738 10.6503ZM170.666 7.85035C170.773 7.78635 170.943 7.70635 171.178 7.61035C171.413 7.50368 171.685 7.41301 171.994 7.33835C172.314 7.26368 172.639 7.22635 172.97 7.22635C173.194 7.22635 173.391 7.24768 173.562 7.29035C173.743 7.33301 173.893 7.40235 174.01 7.49835C174.127 7.59435 174.213 7.71168 174.266 7.85035C174.33 7.97835 174.362 8.13301 174.362 8.31435V12.9543H176.682V7.77035C176.682 7.25835 176.533 6.82635 176.234 6.47435C175.935 6.12235 175.53 5.85568 175.018 5.67435C174.506 5.48235 173.925 5.38635 173.274 5.38635C172.581 5.38635 171.941 5.47701 171.354 5.65835C170.767 5.83968 170.266 6.03168 169.85 6.23435L170.666 7.85035ZM189.723 8.21835C189.723 7.62101 189.648 7.11435 189.499 6.69835C189.35 6.28235 189.104 5.96768 188.763 5.75435C188.432 5.53035 187.979 5.41835 187.403 5.41835C186.902 5.41835 186.454 5.52501 186.059 5.73835C185.664 5.95168 185.334 6.25035 185.067 6.63435C184.918 6.23968 184.672 5.94101 184.331 5.73835C183.99 5.52501 183.531 5.41835 182.955 5.41835C182.454 5.41835 182.022 5.53035 181.659 5.75435C181.307 5.97835 181.03 6.28768 180.827 6.68235V5.59435H178.491V12.9543H180.827V8.47435C180.827 8.17568 180.87 7.92501 180.955 7.72235C181.051 7.51968 181.179 7.37035 181.339 7.27435C181.51 7.16768 181.702 7.11435 181.915 7.11435C182.246 7.11435 182.48 7.23168 182.619 7.46635C182.768 7.69035 182.843 8.02635 182.843 8.47435V12.9543H185.275V8.47435C185.275 8.17568 185.318 7.92501 185.403 7.72235C185.499 7.51968 185.627 7.37035 185.787 7.27435C185.958 7.16768 186.15 7.11435 186.363 7.11435C186.694 7.11435 186.928 7.23168 187.067 7.46635C187.216 7.69035 187.291 8.02635 187.291 8.47435V12.9543H189.723V8.21835ZM192.016 10.2823L191.008 11.8823C191.339 12.1383 191.696 12.373 192.08 12.5863C192.464 12.789 192.88 12.949 193.328 13.0663C193.787 13.1943 194.283 13.2583 194.816 13.2583C195.691 13.2583 196.368 13.061 196.848 12.6663C197.339 12.261 197.584 11.6637 197.584 10.8743C197.584 10.4157 197.483 10.0477 197.28 9.77035C197.088 9.49301 196.827 9.26368 196.496 9.08235C196.176 8.90101 195.824 8.74101 195.44 8.60235C195.077 8.46368 194.768 8.35168 194.512 8.26635C194.267 8.17035 194.075 8.06901 193.936 7.96235C193.808 7.85568 193.744 7.72235 193.744 7.56235C193.744 7.42368 193.797 7.31168 193.904 7.22635C194.021 7.14101 194.192 7.09835 194.416 7.09835C194.747 7.09835 195.109 7.19435 195.504 7.38635C195.899 7.56768 196.251 7.80235 196.56 8.09035L197.424 6.52235C197.136 6.30901 196.827 6.12235 196.496 5.96235C196.176 5.80235 195.829 5.67435 195.456 5.57835C195.093 5.48235 194.699 5.43435 194.272 5.43435C193.739 5.43435 193.264 5.51435 192.848 5.67435C192.443 5.83435 192.117 6.06901 191.872 6.37835C191.637 6.68768 191.52 7.06635 191.52 7.51435C191.52 7.98368 191.621 8.36768 191.824 8.66635C192.027 8.96501 192.283 9.20501 192.592 9.38635C192.912 9.55701 193.248 9.70635 193.6 9.83435C193.995 9.95168 194.304 10.0637 194.528 10.1703C194.763 10.277 194.928 10.389 195.024 10.5063C195.12 10.613 195.168 10.7463 195.168 10.9063C195.168 11.077 195.109 11.2157 194.992 11.3223C194.875 11.429 194.693 11.4823 194.448 11.4823C194.277 11.4823 194.075 11.4503 193.84 11.3863C193.605 11.3117 193.333 11.189 193.024 11.0183C192.725 10.837 192.389 10.5917 192.016 10.2823Z" fill="#BC8AE5"/>
</svg>
