<svg width="471" height="31" viewBox="0 0 471 31" fill="none" xmlns="http://www.w3.org/2000/svg">
<path d="M0.85 23.9546V1.87459H7.45C9.67 1.87459 11.56 2.20459 13.12 2.86459C14.68 3.52459 15.93 4.40459 16.87 5.50459C17.83 6.60459 18.53 7.83459 18.97 9.19459C19.41 10.5546 19.63 11.9246 19.63 13.3046C19.63 14.9446 19.33 16.4246 18.73 17.7446C18.15 19.0446 17.35 20.1646 16.33 21.1046C15.31 22.0246 14.13 22.7346 12.79 23.2346C11.45 23.7146 10.03 23.9546 8.53 23.9546H0.85ZM5.2 19.7546H7.78C8.88 19.7546 9.88 19.6146 10.78 19.3346C11.68 19.0346 12.45 18.6046 13.09 18.0446C13.75 17.4846 14.25 16.7846 14.59 15.9446C14.95 15.0846 15.13 14.1046 15.13 13.0046C15.13 11.5646 14.89 10.3946 14.41 9.49459C13.95 8.57459 13.37 7.86459 12.67 7.36459C11.99 6.86459 11.29 6.52459 10.57 6.34459C9.85 6.14459 9.24 6.04459 8.74 6.04459H5.2V19.7546ZM22.2845 17.2346C22.2845 15.8946 22.5945 14.6946 23.2145 13.6346C23.8545 12.5746 24.7445 11.7446 25.8845 11.1446C27.0245 10.5246 28.3345 10.2146 29.8145 10.2146C31.3145 10.2146 32.6145 10.5246 33.7145 11.1446C34.8145 11.7446 35.6545 12.5746 36.2345 13.6346C36.8345 14.6946 37.1345 15.8946 37.1345 17.2346C37.1345 18.5746 36.8345 19.7846 36.2345 20.8646C35.6545 21.9246 34.8145 22.7646 33.7145 23.3846C32.6145 24.0046 31.2945 24.3146 29.7545 24.3146C28.3145 24.3146 27.0245 24.0346 25.8845 23.4746C24.7645 22.9146 23.8845 22.1046 23.2445 21.0446C22.6045 19.9846 22.2845 18.7146 22.2845 17.2346ZM26.5145 17.2646C26.5145 17.9446 26.6545 18.5646 26.9345 19.1246C27.2145 19.6646 27.5945 20.0946 28.0745 20.4146C28.5545 20.7346 29.0945 20.8946 29.6945 20.8946C30.3545 20.8946 30.9245 20.7346 31.4045 20.4146C31.8845 20.0946 32.2545 19.6646 32.5145 19.1246C32.7745 18.5646 32.9045 17.9446 32.9045 17.2646C32.9045 16.5646 32.7745 15.9446 32.5145 15.4046C32.2545 14.8646 31.8845 14.4346 31.4045 14.1146C30.9245 13.7946 30.3545 13.6346 29.6945 13.6346C29.0945 13.6346 28.5545 13.7946 28.0745 14.1146C27.5945 14.4346 27.2145 14.8646 26.9345 15.4046C26.6545 15.9446 26.5145 16.5646 26.5145 17.2646ZM40.4432 0.284589H44.6432V23.9546H40.4432V0.284589ZM57.1886 24.3146C56.4086 24.3146 55.6386 24.1746 54.8786 23.8946C54.1386 23.5946 53.5186 23.1746 53.0186 22.6346L53.1386 21.4046V30.2546H48.9686V10.5446H52.5686L53.1686 13.0946L52.8386 12.1946C53.5186 11.6146 54.2786 11.1346 55.1186 10.7546C55.9586 10.3746 56.9286 10.1846 58.0286 10.1846C59.2486 10.1846 60.3386 10.4746 61.2986 11.0546C62.2586 11.6146 63.0086 12.4346 63.5486 13.5146C64.1086 14.5746 64.3886 15.8546 64.3886 17.3546C64.3886 18.8346 64.0786 20.0946 63.4586 21.1346C62.8386 22.1746 61.9886 22.9646 60.9086 23.5046C59.8286 24.0446 58.5886 24.3146 57.1886 24.3146ZM56.3486 21.0146C57.0286 21.0146 57.6486 20.8646 58.2086 20.5646C58.7886 20.2646 59.2486 19.8446 59.5886 19.3046C59.9486 18.7446 60.1286 18.1146 60.1286 17.4146C60.1286 16.6746 59.9686 16.0346 59.6486 15.4946C59.3486 14.9346 58.9286 14.5046 58.3886 14.2046C57.8686 13.8846 57.2886 13.7246 56.6486 13.7246C56.0886 13.7246 55.5886 13.8046 55.1486 13.9646C54.7286 14.1046 54.3486 14.3246 54.0086 14.6246C53.6886 14.9046 53.4086 15.2646 53.1686 15.7046V18.9146C53.3286 19.3346 53.5586 19.7046 53.8586 20.0246C54.1586 20.3446 54.5186 20.5946 54.9386 20.7746C55.3786 20.9346 55.8486 21.0146 56.3486 21.0146ZM67.6893 23.9546V0.284589H71.7993V13.4846L71.7693 12.9746C72.2293 12.1546 72.8793 11.4946 73.7193 10.9946C74.5593 10.4746 75.5893 10.2146 76.8093 10.2146C78.0493 10.2146 79.0793 10.5846 79.8993 11.3246C80.7393 12.0446 81.1693 12.9846 81.1893 14.1446V23.9546H76.9893V15.7046C76.9693 15.1246 76.8093 14.6646 76.5093 14.3246C76.2293 13.9646 75.7493 13.7846 75.0693 13.7846C74.4293 13.7846 73.8693 13.9946 73.3893 14.4146C72.9093 14.8346 72.5393 15.4046 72.2793 16.1246C72.0193 16.8446 71.8893 17.6746 71.8893 18.6146V23.9546H67.6893ZM85.5018 10.8446H89.7018V23.9546H85.5018V10.8446ZM85.4118 6.19459C85.4118 5.57459 85.6518 5.06459 86.1318 4.66459C86.6318 4.26459 87.1618 4.06459 87.7218 4.06459C88.2818 4.06459 88.7918 4.26459 89.2518 4.66459C89.7318 5.06459 89.9718 5.57459 89.9718 6.19459C89.9718 6.81459 89.7318 7.32459 89.2518 7.72459C88.7918 8.10459 88.2818 8.29459 87.7218 8.29459C87.1618 8.29459 86.6318 8.10459 86.1318 7.72459C85.6518 7.32459 85.4118 6.81459 85.4118 6.19459ZM97.8372 10.8446L98.1672 13.1846L98.1072 12.9746C98.5672 12.1546 99.2172 11.4946 100.057 10.9946C100.897 10.4746 101.927 10.2146 103.147 10.2146C104.387 10.2146 105.417 10.5846 106.237 11.3246C107.077 12.0446 107.507 12.9846 107.527 14.1446V23.9546H103.327V15.7046C103.307 15.1246 103.147 14.6646 102.847 14.3246C102.567 13.9646 102.087 13.7846 101.407 13.7846C100.767 13.7846 100.207 13.9946 99.7272 14.4146C99.2472 14.8346 98.8772 15.4046 98.6172 16.1246C98.3572 16.8446 98.2272 17.6746 98.2272 18.6146V23.9546H94.0272V10.8446H97.8372ZM117.18 24.3146C115.96 24.3146 114.87 24.0346 113.91 23.4746C112.95 22.8946 112.19 22.0646 111.63 20.9846C111.09 19.9046 110.82 18.6246 110.82 17.1446C110.82 15.6646 111.12 14.4046 111.72 13.3646C112.32 12.3246 113.14 11.5346 114.18 10.9946C115.22 10.4546 116.4 10.1846 117.72 10.1846C118.56 10.1846 119.36 10.3146 120.12 10.5746C120.9 10.8346 121.55 11.2346 122.07 11.7746V13.0946V0.284589H126.24V23.9546H122.04V21.4046L122.37 22.3046C121.69 22.8646 120.93 23.3446 120.09 23.7446C119.25 24.1246 118.28 24.3146 117.18 24.3146ZM118.56 20.7746C119.12 20.7746 119.61 20.7046 120.03 20.5646C120.47 20.4046 120.85 20.1846 121.17 19.9046C121.51 19.6046 121.8 19.2346 122.04 18.7946V15.5846C121.88 15.1446 121.63 14.7746 121.29 14.4746C120.97 14.1546 120.57 13.9146 120.09 13.7546C119.63 13.5746 119.12 13.4846 118.56 13.4846C117.94 13.4846 117.36 13.6446 116.82 13.9646C116.3 14.2646 115.88 14.6846 115.56 15.2246C115.24 15.7646 115.08 16.3846 115.08 17.0846C115.08 17.7846 115.24 18.4146 115.56 18.9746C115.88 19.5346 116.3 19.9746 116.82 20.2946C117.36 20.6146 117.94 20.7746 118.56 20.7746ZM134.34 10.8446L134.73 14.4446L134.64 13.9046C135.02 13.1246 135.54 12.4646 136.2 11.9246C136.86 11.3646 137.51 10.9346 138.15 10.6346C138.81 10.3346 139.31 10.1846 139.65 10.1846L139.44 14.3846C138.46 14.2646 137.62 14.4246 136.92 14.8646C136.22 15.3046 135.68 15.8846 135.3 16.6046C134.92 17.3246 134.73 18.0646 134.73 18.8246V23.9546H130.56V10.8446H134.34ZM148.729 24.3146C147.129 24.3146 145.769 24.0146 144.649 23.4146C143.549 22.8146 142.709 21.9846 142.129 20.9246C141.549 19.8646 141.259 18.6446 141.259 17.2646C141.259 15.9446 141.599 14.7546 142.279 13.6946C142.959 12.6346 143.869 11.7946 145.009 11.1746C146.149 10.5346 147.419 10.2146 148.819 10.2146C150.699 10.2146 152.239 10.7646 153.439 11.8646C154.659 12.9446 155.449 14.5146 155.809 16.5746L145.609 19.8146L144.679 17.5346L152.059 15.0446L151.189 15.4346C151.029 14.9146 150.739 14.4646 150.319 14.0846C149.919 13.6846 149.309 13.4846 148.489 13.4846C147.869 13.4846 147.319 13.6346 146.839 13.9346C146.379 14.2146 146.019 14.6246 145.759 15.1646C145.519 15.6846 145.399 16.3046 145.399 17.0246C145.399 17.8446 145.549 18.5346 145.849 19.0946C146.149 19.6346 146.559 20.0446 147.079 20.3246C147.599 20.6046 148.179 20.7446 148.819 20.7446C149.279 20.7446 149.719 20.6646 150.139 20.5046C150.579 20.3446 151.009 20.1346 151.429 19.8746L153.289 22.9946C152.589 23.3946 151.829 23.7146 151.009 23.9546C150.209 24.1946 149.449 24.3146 148.729 24.3146ZM164.381 24.3146C163.161 24.3146 162.051 24.0746 161.051 23.5946C160.071 23.0946 159.291 22.3346 158.711 21.3146C158.131 20.2946 157.841 18.9946 157.841 17.4146C157.841 15.9346 158.141 14.6546 158.741 13.5746C159.341 12.4946 160.131 11.6646 161.111 11.0846C162.091 10.4846 163.131 10.1846 164.231 10.1846C165.531 10.1846 166.511 10.4046 167.171 10.8446C167.851 11.2646 168.411 11.7346 168.851 12.2546L168.671 12.7646L169.061 10.8446H172.961V23.9546H168.761V21.1046L169.091 22.0046C169.051 22.0046 168.931 22.1246 168.731 22.3646C168.531 22.5846 168.231 22.8546 167.831 23.1746C167.451 23.4746 166.971 23.7346 166.391 23.9546C165.831 24.1946 165.161 24.3146 164.381 24.3146ZM165.581 20.8946C166.081 20.8946 166.531 20.8246 166.931 20.6846C167.331 20.5246 167.681 20.3046 167.981 20.0246C168.281 19.7246 168.541 19.3546 168.761 18.9146V15.7046C168.601 15.2646 168.361 14.8946 168.041 14.5946C167.721 14.2746 167.341 14.0346 166.901 13.8746C166.461 13.6946 165.971 13.6046 165.431 13.6046C164.831 13.6046 164.271 13.7646 163.751 14.0846C163.251 14.3846 162.851 14.8046 162.551 15.3446C162.251 15.8846 162.101 16.5046 162.101 17.2046C162.101 17.9046 162.261 18.5346 162.581 19.0946C162.901 19.6546 163.321 20.0946 163.841 20.4146C164.381 20.7346 164.961 20.8946 165.581 20.8946ZM181.099 10.8446L181.429 13.1546L181.369 12.9746C181.889 12.0946 182.539 11.4146 183.319 10.9346C184.099 10.4346 185.039 10.1846 186.139 10.1846C186.859 10.1846 187.489 10.2846 188.029 10.4846C188.589 10.6846 189.059 10.9846 189.439 11.3846C189.819 11.7646 190.079 12.2646 190.219 12.8846L190.069 12.9146C190.629 12.0946 191.299 11.4346 192.079 10.9346C192.879 10.4346 193.709 10.1846 194.569 10.1846C195.869 10.1846 196.899 10.5546 197.659 11.2946C198.439 12.0146 198.839 12.9546 198.859 14.1146V23.9546H194.689V15.8546C194.669 15.2746 194.579 14.8046 194.419 14.4446C194.259 14.0646 193.889 13.8546 193.309 13.8146C192.629 13.8146 192.049 14.0546 191.569 14.5346C191.109 14.9946 190.759 15.5946 190.519 16.3346C190.299 17.0546 190.189 17.8046 190.189 18.5846V23.9546H185.989V15.8546C185.969 15.2746 185.859 14.8046 185.659 14.4446C185.479 14.0646 185.099 13.8546 184.519 13.8146C183.859 13.8146 183.299 14.0546 182.839 14.5346C182.399 14.9946 182.059 15.5846 181.819 16.3046C181.599 17.0246 181.489 17.7646 181.489 18.5246V23.9546H177.289V10.8446H181.099ZM213.633 1.87459H217.983V23.9546H213.633V1.87459ZM226.802 10.8446L227.132 13.1846L227.072 12.9746C227.532 12.1546 228.182 11.4946 229.022 10.9946C229.862 10.4746 230.892 10.2146 232.112 10.2146C233.352 10.2146 234.382 10.5846 235.202 11.3246C236.042 12.0446 236.472 12.9846 236.492 14.1446V23.9546H232.292V15.7046C232.272 15.1246 232.112 14.6646 231.812 14.3246C231.532 13.9646 231.052 13.7846 230.372 13.7846C229.732 13.7846 229.172 13.9946 228.692 14.4146C228.212 14.8346 227.842 15.4046 227.582 16.1246C227.322 16.8446 227.192 17.6746 227.192 18.6146V23.9546H222.992V10.8446H226.802ZM242.065 23.9546V14.5046H239.845V10.7846H242.065V6.22459C242.065 4.50459 242.555 3.10459 243.535 2.02459C244.535 0.92459 245.975 0.374589 247.855 0.374589C248.415 0.374589 249.035 0.464589 249.715 0.64459C250.415 0.804589 251.025 1.07459 251.545 1.45459L249.775 4.48459C249.575 4.22459 249.335 4.05459 249.055 3.97459C248.795 3.87459 248.545 3.82459 248.305 3.82459C247.705 3.82459 247.215 4.02459 246.835 4.42459C246.455 4.82459 246.265 5.46459 246.265 6.34459V10.7846H250.225V14.5046H246.265V23.9546H242.065ZM257.622 10.8446L258.012 14.4446L257.922 13.9046C258.302 13.1246 258.822 12.4646 259.482 11.9246C260.142 11.3646 260.792 10.9346 261.432 10.6346C262.092 10.3346 262.592 10.1846 262.932 10.1846L262.722 14.3846C261.742 14.2646 260.902 14.4246 260.202 14.8646C259.502 15.3046 258.962 15.8846 258.582 16.6046C258.202 17.3246 258.012 18.0646 258.012 18.8246V23.9546H253.842V10.8446H257.622ZM271.227 24.3146C270.007 24.3146 268.897 24.0746 267.897 23.5946C266.917 23.0946 266.137 22.3346 265.557 21.3146C264.977 20.2946 264.687 18.9946 264.687 17.4146C264.687 15.9346 264.987 14.6546 265.587 13.5746C266.187 12.4946 266.977 11.6646 267.957 11.0846C268.937 10.4846 269.977 10.1846 271.077 10.1846C272.377 10.1846 273.357 10.4046 274.017 10.8446C274.697 11.2646 275.257 11.7346 275.697 12.2546L275.517 12.7646L275.907 10.8446H279.807V23.9546H275.607V21.1046L275.937 22.0046C275.897 22.0046 275.777 22.1246 275.577 22.3646C275.377 22.5846 275.077 22.8546 274.677 23.1746C274.297 23.4746 273.817 23.7346 273.237 23.9546C272.677 24.1946 272.007 24.3146 271.227 24.3146ZM272.427 20.8946C272.927 20.8946 273.377 20.8246 273.777 20.6846C274.177 20.5246 274.527 20.3046 274.827 20.0246C275.127 19.7246 275.387 19.3546 275.607 18.9146V15.7046C275.447 15.2646 275.207 14.8946 274.887 14.5946C274.567 14.2746 274.187 14.0346 273.747 13.8746C273.307 13.6946 272.817 13.6046 272.277 13.6046C271.677 13.6046 271.117 13.7646 270.597 14.0846C270.097 14.3846 269.697 14.8046 269.397 15.3446C269.097 15.8846 268.947 16.5046 268.947 17.2046C268.947 17.9046 269.107 18.5346 269.427 19.0946C269.747 19.6546 270.167 20.0946 270.687 20.4146C271.227 20.7346 271.807 20.8946 272.427 20.8946ZM301.27 1.87459C303.09 1.87459 304.63 2.18459 305.89 2.80459C307.15 3.40459 308.11 4.26459 308.77 5.38459C309.43 6.48459 309.76 7.79459 309.76 9.31459C309.76 10.2146 309.62 11.1246 309.34 12.0446C309.08 12.9446 308.65 13.7646 308.05 14.5046C307.47 15.2446 306.68 15.8446 305.68 16.3046C304.7 16.7446 303.49 16.9646 302.05 16.9646H298.93V23.9546H294.58V1.87459H301.27ZM302.02 12.7346C302.68 12.7346 303.23 12.6246 303.67 12.4046C304.11 12.1646 304.45 11.8746 304.69 11.5346C304.95 11.1746 305.13 10.8046 305.23 10.4246C305.35 10.0446 305.41 9.71459 305.41 9.43459C305.41 9.21459 305.37 8.92459 305.29 8.56459C305.23 8.18459 305.09 7.80459 304.87 7.42459C304.65 7.04459 304.31 6.72459 303.85 6.46459C303.41 6.20459 302.81 6.07459 302.05 6.07459H298.93V12.7346H302.02ZM316.743 10.8446L317.133 14.4446L317.043 13.9046C317.423 13.1246 317.943 12.4646 318.603 11.9246C319.263 11.3646 319.913 10.9346 320.553 10.6346C321.213 10.3346 321.713 10.1846 322.053 10.1846L321.843 14.3846C320.863 14.2646 320.023 14.4246 319.323 14.8646C318.623 15.3046 318.083 15.8846 317.703 16.6046C317.323 17.3246 317.133 18.0646 317.133 18.8246V23.9546H312.963V10.8446H316.743ZM323.661 17.2346C323.661 15.8946 323.971 14.6946 324.591 13.6346C325.231 12.5746 326.121 11.7446 327.261 11.1446C328.401 10.5246 329.711 10.2146 331.191 10.2146C332.691 10.2146 333.991 10.5246 335.091 11.1446C336.191 11.7446 337.031 12.5746 337.611 13.6346C338.211 14.6946 338.511 15.8946 338.511 17.2346C338.511 18.5746 338.211 19.7846 337.611 20.8646C337.031 21.9246 336.191 22.7646 335.091 23.3846C333.991 24.0046 332.671 24.3146 331.131 24.3146C329.691 24.3146 328.401 24.0346 327.261 23.4746C326.141 22.9146 325.261 22.1046 324.621 21.0446C323.981 19.9846 323.661 18.7146 323.661 17.2346ZM327.891 17.2646C327.891 17.9446 328.031 18.5646 328.311 19.1246C328.591 19.6646 328.971 20.0946 329.451 20.4146C329.931 20.7346 330.471 20.8946 331.071 20.8946C331.731 20.8946 332.301 20.7346 332.781 20.4146C333.261 20.0946 333.631 19.6646 333.891 19.1246C334.151 18.5646 334.281 17.9446 334.281 17.2646C334.281 16.5646 334.151 15.9446 333.891 15.4046C333.631 14.8646 333.261 14.4346 332.781 14.1146C332.301 13.7946 331.731 13.6346 331.071 13.6346C330.471 13.6346 329.931 13.7946 329.451 14.1146C328.971 14.4346 328.591 14.8646 328.311 15.4046C328.031 15.9446 327.891 16.5646 327.891 17.2646ZM342.69 30.2846L340.26 27.6746C340.86 27.2346 341.32 26.6946 341.64 26.0546C341.98 25.4146 342.15 24.6346 342.15 23.7146V10.8446H346.35V23.9546C346.35 25.5146 346.07 26.8046 345.51 27.8246C344.95 28.8646 344.01 29.6846 342.69 30.2846ZM342 6.19459C342 5.57459 342.24 5.06459 342.72 4.66459C343.22 4.26459 343.75 4.06459 344.31 4.06459C344.87 4.06459 345.38 4.26459 345.84 4.66459C346.32 5.06459 346.56 5.57459 346.56 6.19459C346.56 6.81459 346.32 7.32459 345.84 7.72459C345.38 8.10459 344.87 8.29459 344.31 8.29459C343.75 8.29459 343.22 8.10459 342.72 7.72459C342.24 7.32459 342 6.81459 342 6.19459ZM357.118 24.3146C355.518 24.3146 354.158 24.0146 353.038 23.4146C351.938 22.8146 351.098 21.9846 350.518 20.9246C349.938 19.8646 349.648 18.6446 349.648 17.2646C349.648 15.9446 349.988 14.7546 350.668 13.6946C351.348 12.6346 352.258 11.7946 353.398 11.1746C354.538 10.5346 355.808 10.2146 357.208 10.2146C359.088 10.2146 360.628 10.7646 361.828 11.8646C363.048 12.9446 363.838 14.5146 364.198 16.5746L353.998 19.8146L353.068 17.5346L360.448 15.0446L359.578 15.4346C359.418 14.9146 359.128 14.4646 358.708 14.0846C358.308 13.6846 357.698 13.4846 356.878 13.4846C356.258 13.4846 355.708 13.6346 355.228 13.9346C354.768 14.2146 354.408 14.6246 354.148 15.1646C353.908 15.6846 353.788 16.3046 353.788 17.0246C353.788 17.8446 353.938 18.5346 354.238 19.0946C354.538 19.6346 354.948 20.0446 355.468 20.3246C355.988 20.6046 356.568 20.7446 357.208 20.7446C357.668 20.7446 358.108 20.6646 358.528 20.5046C358.968 20.3446 359.398 20.1346 359.818 19.8746L361.678 22.9946C360.978 23.3946 360.218 23.7146 359.398 23.9546C358.598 24.1946 357.838 24.3146 357.118 24.3146ZM378.38 22.7846C377.8 23.2446 377.07 23.6146 376.19 23.8946C375.33 24.1746 374.48 24.3146 373.64 24.3146C372.14 24.3146 370.83 24.0446 369.71 23.5046C368.61 22.9446 367.75 22.1546 367.13 21.1346C366.53 20.0946 366.23 18.8446 366.23 17.3846C366.23 15.9246 366.56 14.6846 367.22 13.6646C367.88 12.6246 368.74 11.8346 369.8 11.2946C370.88 10.7546 372.01 10.4846 373.19 10.4846C374.37 10.4846 375.39 10.6446 376.25 10.9646C377.13 11.2846 377.88 11.7046 378.5 12.2246L376.46 14.9246C376.18 14.7046 375.79 14.4846 375.29 14.2646C374.81 14.0246 374.24 13.9046 373.58 13.9046C373 13.9046 372.47 14.0546 371.99 14.3546C371.51 14.6546 371.13 15.0646 370.85 15.5846C370.57 16.1046 370.43 16.7046 370.43 17.3846C370.43 18.0246 370.58 18.6146 370.88 19.1546C371.18 19.6946 371.59 20.1246 372.11 20.4446C372.65 20.7446 373.28 20.8946 374 20.8946C374.46 20.8946 374.88 20.8346 375.26 20.7146C375.66 20.5746 376 20.3846 376.28 20.1446L378.38 22.7846ZM382.835 5.08459H387.035V10.7846H390.215V14.0546H387.035V23.9546H382.835V14.0546H380.795V10.7846H382.835V5.08459ZM397.672 24.2246C396.592 24.2246 395.582 24.0346 394.642 23.6546C393.722 23.2746 392.942 22.7446 392.302 22.0646L394.042 19.7546C394.682 20.3346 395.272 20.7546 395.812 21.0146C396.372 21.2546 396.872 21.3746 397.312 21.3746C397.652 21.3746 397.952 21.3446 398.212 21.2846C398.492 21.2046 398.712 21.0946 398.872 20.9546C399.032 20.7946 399.112 20.5946 399.112 20.3546C399.112 20.0146 398.972 19.7446 398.692 19.5446C398.432 19.3446 398.092 19.1846 397.672 19.0646C397.252 18.9246 396.802 18.7846 396.322 18.6446C395.122 18.2646 394.252 17.7146 393.712 16.9946C393.192 16.2546 392.932 15.4546 392.932 14.5946C392.932 13.9346 393.102 13.2746 393.442 12.6146C393.802 11.9346 394.362 11.3746 395.122 10.9346C395.902 10.4746 396.902 10.2446 398.122 10.2446C399.222 10.2446 400.152 10.3546 400.912 10.5746C401.672 10.7946 402.392 11.1546 403.072 11.6546L401.482 14.1146C401.102 13.8146 400.672 13.5646 400.192 13.3646C399.732 13.1446 399.302 13.0246 398.902 13.0046C398.542 12.9846 398.232 13.0246 397.972 13.1246C397.732 13.2246 397.542 13.3546 397.402 13.5146C397.262 13.6746 397.192 13.8446 397.192 14.0246C397.172 14.4046 397.312 14.7046 397.612 14.9246C397.932 15.1446 398.332 15.3146 398.812 15.4346C399.292 15.5546 399.762 15.6946 400.222 15.8546C400.862 16.0546 401.412 16.3246 401.872 16.6646C402.332 17.0046 402.682 17.4146 402.922 17.8946C403.182 18.3546 403.312 18.9146 403.312 19.5746C403.312 20.3746 403.102 21.1346 402.682 21.8546C402.282 22.5546 401.662 23.1246 400.822 23.5646C400.002 24.0046 398.952 24.2246 397.672 24.2246ZM417.276 1.87459H421.626V19.7546H432.006V23.9546H417.276V1.87459ZM436.495 1.87459H440.845V19.7546H451.225V23.9546H436.495V1.87459ZM462.403 1.87459C464.223 1.87459 465.763 2.18459 467.023 2.80459C468.283 3.40459 469.243 4.26459 469.903 5.38459C470.563 6.48459 470.893 7.79459 470.893 9.31459C470.893 10.2146 470.753 11.1246 470.473 12.0446C470.213 12.9446 469.783 13.7646 469.183 14.5046C468.603 15.2446 467.813 15.8446 466.813 16.3046C465.833 16.7446 464.623 16.9646 463.183 16.9646H460.063V23.9546H455.713V1.87459H462.403ZM463.153 12.7346C463.813 12.7346 464.363 12.6246 464.803 12.4046C465.243 12.1646 465.583 11.8746 465.823 11.5346C466.083 11.1746 466.263 10.8046 466.363 10.4246C466.483 10.0446 466.543 9.71459 466.543 9.43459C466.543 9.21459 466.503 8.92459 466.423 8.56459C466.363 8.18459 466.223 7.80459 466.003 7.42459C465.783 7.04459 465.443 6.72459 464.983 6.46459C464.543 6.20459 463.943 6.07459 463.183 6.07459H460.063V12.7346H463.153Z" fill="url(#paint0_linear_7062_393871)"/>
<defs>
<linearGradient id="paint0_linear_7062_393871" x1="440.54" y1="2.03459" x2="434.566" y2="76.8951" gradientUnits="userSpaceOnUse">
<stop stop-color="#1B4963"/>
<stop offset="1" stop-color="#09152F"/>
</linearGradient>
</defs>
</svg>
