<svg width="50" height="38" viewBox="0 0 50 38" fill="none" xmlns="http://www.w3.org/2000/svg">
<g clip-path="url(#clip0_1988_5875)">
<path d="M11.3637 37.0892V17.9874L5.37246 12.5678L0 9.5603V33.7182C0 35.5834 1.52832 37.0892 3.40918 37.0892H11.3637Z" fill="#4285F4"/>
<path d="M38.6362 37.0893H46.5907C48.4772 37.0893 49.9999 35.5779 49.9999 33.7183V9.56055L43.9147 13.0053L38.6362 17.9875V37.0893Z" fill="#34A853"/>
<path d="M11.3636 17.9874L10.5483 10.5238L11.3636 3.38037L24.9999 13.4931L38.6362 3.38037L39.5481 10.1381L38.6362 17.9874L24.9999 28.1001L11.3636 17.9874Z" fill="#EA4335"/>
<path d="M38.6362 3.38036V17.9874L49.9999 9.5603V5.06575C49.9999 0.89719 45.1874 -1.47919 41.8183 1.02079L38.6362 3.38036Z" fill="#FBBC04"/>
<path d="M0 9.56039L5.22637 13.4364L11.3637 17.9875V3.38045L8.18164 1.02088C4.80664 -1.47929 0 0.897278 0 5.06564V9.56019V9.56039Z" fill="#C5221F"/>
</g>
<defs>
<clipPath id="clip0_1988_5875">
<rect width="50" height="37.2727" fill="white"/>
</clipPath>
</defs>
</svg>
