<svg width="338" height="229" viewBox="0 0 338 229" fill="none" xmlns="http://www.w3.org/2000/svg">
<path fill-rule="evenodd" clip-rule="evenodd" d="M119.324 30.2477C108.124 31.0477 81.9908 39.581 70.3241 43.7477C65.9234 46.1477 66.8238 50.081 67.8241 51.7476C69.3242 56.7476 92.9908 66.5809 106.824 71.7476C106.424 79.3476 135.194 105.914 149.63 118.248C141.111 136.671 142.157 170.91 158.324 172.748C171.852 174.285 180.275 159.186 184.757 146.748C198.703 161.948 184.946 181.414 176.324 189.248C154.324 204.448 133.824 195.581 126.324 189.248C133.524 172.448 116.324 147.248 106.824 136.748C86.824 149.148 91.1575 174.914 95.8242 186.248C85.0242 189.448 67.6576 211.248 60.3242 221.748C87.9242 237.748 110.824 223.414 118.824 214.248C166.424 236.248 219.324 220.748 239.824 210.248C293.253 175.42 290.607 132.447 289.414 113.069C289.1 107.965 288.886 104.498 289.824 103.248C294.324 97.2476 311.824 87.7476 319.824 89.7476C326.224 91.3476 333.157 92.7476 335.824 93.2476C340.624 86.0476 331.491 74.2476 326.324 69.2476C301.924 39.6476 269.824 38.5809 256.824 41.7476C242.324 28.2476 208.824 3.74766 170.824 0.24766C140.424 -2.55234 123.824 19.081 119.324 30.2477ZM69.8242 219.248C84.6242 230.448 107.324 216.581 116.824 208.248L118.324 206.248C125.524 213.048 146.324 216.414 155.824 217.248C179.717 220.144 197.166 207.988 205.163 197.45C206.855 196.073 209.611 191.314 213.324 181C224.124 151 199.824 135.248 188.324 129.248V138.748C205.524 154.748 192.491 179.414 183.824 189.748C157.424 212.148 130.824 200.414 120.824 191.748C127.624 178.548 113.991 154.581 106.324 144.248C92.3242 148.248 98.8242 176.248 103.824 189.748C95.0242 189.748 77.4909 209.414 69.8242 219.248ZM168.824 59.2476C168.824 67.808 161.885 74.7476 153.324 74.7476C144.764 74.7476 137.824 67.808 137.824 59.2476C137.824 50.6871 144.764 43.7476 153.324 43.7476C161.885 43.7476 168.824 50.6871 168.824 59.2476ZM120.825 80.7476C120.158 81.4142 119.225 83.2476 120.825 85.2476C122.425 87.2476 142.824 104.081 152.824 112.248C155.018 109.897 159.806 105.689 162.365 106.526C162.942 106.856 163.126 106.949 162.824 106.748C162.681 106.652 162.527 106.579 162.365 106.526C157.216 103.573 120.825 81.6468 120.825 80.7476Z" fill="#6BD5EB"/>
<path fill-rule="evenodd" clip-rule="evenodd" d="M50.3242 124.248V220.748L0.824219 192.748V94.7476L50.3242 124.248ZM12.3242 116.248L17.8242 118.248V125.248L12.3242 122.748V116.248ZM12.3242 145.248L17.8242 149.248V155.248L12.3242 152.748V145.248ZM38.3242 160.748L32.3242 157.748V163.248L38.3242 166.748V160.748ZM32.3242 187.248L38.3242 190.248V196.748L32.3242 194.248V187.248Z" fill="#6C99CA"/>
<path d="M49.5705 66.7465L1.82826 94.3315L50.0781 123.253L97.3246 95.1637L49.5705 66.7465Z" fill="#6BD5EB"/>
</svg>
